# xmcd
#
# Track frame offsets:
#	150
#	9181
#	19591
#	27661
#	37479
#	48976
#	58439
#	69574
#	79880
#	92554
#	104789
#	116028
#	124969
#	139545
#	150784
#	159718
#	170560
#	181820
#	193094
#	201944
#
# Disc length: 2837 seconds
#
# Revision: 0
# Processed by: cddbd v1.5.2PL0 Copyright (c) Steve Scherf et al.
# Submitted via: EZCDAudioConverter 3.1.0.1
#
DISCID=1d0b1314
DTITLE=Frank Ifield - I Remember You
DYEAR=196
DGENRE=60's
TTITLE0=I  Remember You
TTITLE1=Lovesick Blues
TTITLE2=Gotta Get A Date
TTITLE3=She Taught Me How To Yodel
TTITLE4=Go Tell It On The Mountain
TTITLE5=Confessin' (That I Love You)
TTITLE6=Mule Train
TTITLE7=Don't Blame Me
TTITLE8=Angry At The Big Oak Tree
TTITLE9=The Wayward Wind
TTITLE10=Nobody's Darling But Mine
TTITLE11=Lucky Devil
TTITLE12=Summer Is Over
TTITLE13=I Should Care
TTITLE14=Call Her Your Sweetheart
TTITLE15=Paradise
TTITLE16=No One Will Ever Know
TTITLE17=Up Up And Away
TTITLE18=Happy Go Lucky Me
TTITLE19=Waltzing Matilda
EXTD=
EXTT0=
EXTT1=
EXTT2=
EXTT3=
EXTT4=
EXTT5=
EXTT6=
EXTT7=
EXTT8=
EXTT9=
EXTT10=
EXTT11=
EXTT12=
EXTT13=
EXTT14=
EXTT15=
EXTT16=
EXTT17=
EXTT18=
EXTT19=
PLAYORDER=
